<svg width="193" height="99" viewBox="0 0 193 99" fill="none" xmlns="http://www.w3.org/2000/svg">
<g filter="url(#filter0_ddd_281_828)">
<rect x="20.0551" y="20" width="142.89" height="49" rx="24.5" fill="black"/>
</g>
<path d="M70.5454 35H42.4548C41.1641 35 40.5128 35.9599 41.4273 36.5204L52.625 43.3845V51.0312C52.625 51.3218 52.8563 51.5942 53.2448 51.7609L58.0886 53.8383C59.0442 54.2483 60.375 53.8327 60.375 53.1086V43.3845L71.5729 36.5204C72.4856 35.961 71.8388 35 70.5454 35Z" fill="white"/>
<path d="M89.5576 34.2871H93.4424V53H89.5576V34.2871Z" fill="white"/>
<path d="M127.844 50.75H124.719C124.512 50.75 124.313 50.8323 124.166 50.9788C124.02 51.1253 123.938 51.324 123.938 51.5312V53.0938C123.938 53.301 124.02 53.4997 124.166 53.6462C124.313 53.7927 124.512 53.875 124.719 53.875H127.844C128.051 53.875 128.25 53.7927 128.396 53.6462C128.543 53.4997 128.625 53.301 128.625 53.0938V51.5312C128.625 51.324 128.543 51.1253 128.396 50.9788C128.25 50.8323 128.051 50.75 127.844 50.75ZM121.594 47.625H119.25V32.7812C119.25 32.574 119.168 32.3753 119.021 32.2288C118.875 32.0823 118.676 32 118.469 32H116.906C116.699 32 116.5 32.0823 116.354 32.2288C116.207 32.3753 116.125 32.574 116.125 32.7812V47.625H113.781C113.088 47.625 112.738 48.4668 113.23 48.9585L117.136 53.646C117.283 53.7924 117.481 53.8746 117.689 53.8746C117.896 53.8746 118.094 53.7924 118.241 53.646L122.147 48.9585C122.636 48.4678 122.288 47.625 121.594 47.625ZM134.094 38.25H124.719C124.512 38.25 124.313 38.3323 124.166 38.4788C124.02 38.6253 123.938 38.824 123.938 39.0312V40.5938C123.938 40.801 124.02 40.9997 124.166 41.1462C124.313 41.2927 124.512 41.375 124.719 41.375H134.094C134.301 41.375 134.5 41.2927 134.646 41.1462C134.793 40.9997 134.875 40.801 134.875 40.5938V39.0312C134.875 38.824 134.793 38.6253 134.646 38.4788C134.5 38.3323 134.301 38.25 134.094 38.25ZM130.969 44.5H124.719C124.512 44.5 124.313 44.5823 124.166 44.7288C124.02 44.8753 123.938 45.074 123.938 45.2812V46.8438C123.938 47.051 124.02 47.2497 124.166 47.3962C124.313 47.5427 124.512 47.625 124.719 47.625H130.969C131.176 47.625 131.375 47.5427 131.521 47.3962C131.668 47.2497 131.75 47.051 131.75 46.8438V45.2812C131.75 45.074 131.668 44.8753 131.521 44.7288C131.375 44.5823 131.176 44.5 130.969 44.5ZM137.219 32H124.719C124.512 32 124.313 32.0823 124.166 32.2288C124.02 32.3753 123.938 32.574 123.938 32.7812V34.3438C123.938 34.551 124.02 34.7497 124.166 34.8962C124.313 35.0427 124.512 35.125 124.719 35.125H137.219C137.426 35.125 137.625 35.0427 137.771 34.8962C137.918 34.7497 138 34.551 138 34.3438V32.7812C138 32.574 137.918 32.3753 137.771 32.2288C137.625 32.0823 137.426 32 137.219 32V32Z" fill="white"/>
<defs>
<filter id="filter0_ddd_281_828" x="0.0550537" y="0" width="192.89" height="99" filterUnits="userSpaceOnUse" color-interpolation-filters="sRGB">
<feFlood flood-opacity="0" result="BackgroundImageFix"/>
<feColorMatrix in="SourceAlpha" type="matrix" values="0 0 0 0 0 0 0 0 0 0 0 0 0 0 0 0 0 0 127 0" result="hardAlpha"/>
<feOffset dx="5" dy="5"/>
<feGaussianBlur stdDeviation="12.5"/>
<feComposite in2="hardAlpha" operator="out"/>
<feColorMatrix type="matrix" values="0 0 0 0 0 0 0 0 0 0 0 0 0 0 0 0 0 0 0.5 0"/>
<feBlend mode="normal" in2="BackgroundImageFix" result="effect1_dropShadow_281_828"/>
<feColorMatrix in="SourceAlpha" type="matrix" values="0 0 0 0 0 0 0 0 0 0 0 0 0 0 0 0 0 0 127 0" result="hardAlpha"/>
<feOffset dx="-1" dy="-1"/>
<feGaussianBlur stdDeviation="2"/>
<feComposite in2="hardAlpha" operator="out"/>
<feColorMatrix type="matrix" values="0 0 0 0 1 0 0 0 0 1 0 0 0 0 1 0 0 0 1 0"/>
<feBlend mode="normal" in2="effect1_dropShadow_281_828" result="effect2_dropShadow_281_828"/>
<feColorMatrix in="SourceAlpha" type="matrix" values="0 0 0 0 0 0 0 0 0 0 0 0 0 0 0 0 0 0 127 0" result="hardAlpha"/>
<feOffset dx="1" dy="1"/>
<feGaussianBlur stdDeviation="2"/>
<feComposite in2="hardAlpha" operator="out"/>
<feColorMatrix type="matrix" values="0 0 0 0 0 0 0 0 0 0 0 0 0 0 0 0 0 0 0.5 0"/>
<feBlend mode="normal" in2="effect2_dropShadow_281_828" result="effect3_dropShadow_281_828"/>
<feBlend mode="normal" in="SourceGraphic" in2="effect3_dropShadow_281_828" result="shape"/>
</filter>
</defs>
</svg>
