<?xml version="1.0" encoding="UTF-8"?>
<svg id="Layer_2" data-name="Layer 2" xmlns="http://www.w3.org/2000/svg" viewBox="0 0 60.05 25.33">
  <defs>
    <style>
      .cls-1 {
        fill: #231f20;
      }
    </style>
  </defs>
  <g id="Layer_1-2" data-name="Layer 1">
    <path class="cls-1" d="M14.79,7.54c-1.08-1.03-2.7-1.54-4.86-1.54H0V25.33H6v-7.17h3.27c2.41,0,4.2-.55,5.37-1.65,1.17-1.1,1.76-2.62,1.76-4.57s-.54-3.36-1.62-4.39Zm-4.9,6.1c-.47,.4-1.27,.6-2.43,.6h-1.46v-4.31h1.7c1.12,0,1.88,.21,2.28,.63s.61,.94,.61,1.54-.23,1.14-.7,1.54Z"/>
    <path class="cls-1" d="M34.01,13.05c0-1.85-.3-3.34-.91-4.5-.61-1.15-1.49-2.03-2.65-2.64-1.16-.61-2.74-.91-4.75-.91-2.47,0-4.41,.68-5.81,2.03s-2.1,3.12-2.1,5.31c0,1.54,.35,2.88,1.05,4.01,.7,1.14,1.58,1.97,2.64,2.49,1.06,.52,2.52,.78,4.38,.78,2.14,0,3.77-.31,4.92-.92,1.14-.61,2.12-1.62,2.93-3.03l-5.29-.49c-.33,.42-.65,.72-.94,.88-.47,.26-.98,.4-1.5,.4-.83,0-1.51-.3-2.03-.91-.37-.42-.6-1.06-.7-1.92h10.76v-.61Zm-10.74-1.96c.09-.83,.29-1.46,.62-1.88,.51-.68,1.19-1.02,2.04-1.02,.74,0,1.33,.22,1.79,.67,.45,.45,.73,1.19,.84,2.23h-5.29Z"/>
    <path class="cls-1" d="M52.02,13.05c0-1.85-.3-3.34-.91-4.5-.61-1.15-1.49-2.03-2.65-2.64-1.16-.61-2.74-.91-4.75-.91-2.47,0-4.41,.68-5.81,2.03s-2.1,3.12-2.1,5.31c0,1.54,.35,2.88,1.05,4.01,.7,1.14,1.58,1.97,2.64,2.49,1.06,.52,2.52,.78,4.38,.78,2.14,0,3.78-.31,4.92-.92,1.14-.61,2.12-1.62,2.93-3.03l-5.29-.49c-.33,.42-.65,.72-.94,.88-.47,.26-.97,.4-1.5,.4-.84,0-1.51-.3-2.03-.91-.37-.42-.6-1.06-.7-1.92h10.76v-.61Zm-10.74-1.96c.09-.83,.29-1.46,.62-1.88,.51-.68,1.19-1.02,2.04-1.02,.74,0,1.33,.22,1.79,.67,.45,.45,.73,1.19,.84,2.23h-5.29Z"/>
    <rect class="cls-1" x="54.67" width="5.38" height="19.33"/>
  </g>
</svg>