<svg width="25" height="22" viewBox="0 0 25 22" fill="none" xmlns="http://www.w3.org/2000/svg">
<path d="M14.8438 18.75H11.7188C11.5116 18.75 11.3129 18.8323 11.1664 18.9788C11.0198 19.1253 10.9375 19.324 10.9375 19.5312V21.0938C10.9375 21.301 11.0198 21.4997 11.1664 21.6462C11.3129 21.7927 11.5116 21.875 11.7188 21.875H14.8438C15.051 21.875 15.2497 21.7927 15.3962 21.6462C15.5427 21.4997 15.625 21.301 15.625 21.0938V19.5312C15.625 19.324 15.5427 19.1253 15.3962 18.9788C15.2497 18.8323 15.051 18.75 14.8438 18.75ZM8.59379 15.625H6.25004V0.78125C6.25004 0.57405 6.16773 0.375336 6.02121 0.228823C5.8747 0.08231 5.67599 0 5.46879 0H3.90629C3.69909 0 3.50037 0.08231 3.35386 0.228823C3.20735 0.375336 3.12504 0.57405 3.12504 0.78125V15.625H0.781288C0.0884166 15.625 -0.262169 16.4668 0.230018 16.9585L4.13627 21.646C4.28277 21.7924 4.4814 21.8746 4.68851 21.8746C4.89563 21.8746 5.09426 21.7924 5.24076 21.646L9.14701 16.9585C9.63627 16.4678 9.28812 15.625 8.59379 15.625ZM21.0938 6.25H11.7188C11.5116 6.25 11.3129 6.33231 11.1664 6.47882C11.0198 6.62534 10.9375 6.82405 10.9375 7.03125V8.59375C10.9375 8.80095 11.0198 8.99966 11.1664 9.14618C11.3129 9.29269 11.5116 9.375 11.7188 9.375H21.0938C21.301 9.375 21.4997 9.29269 21.6462 9.14618C21.7927 8.99966 21.875 8.80095 21.875 8.59375V7.03125C21.875 6.82405 21.7927 6.62534 21.6462 6.47882C21.4997 6.33231 21.301 6.25 21.0938 6.25ZM17.9688 12.5H11.7188C11.5116 12.5 11.3129 12.5823 11.1664 12.7288C11.0198 12.8753 10.9375 13.074 10.9375 13.2812V14.8438C10.9375 15.051 11.0198 15.2497 11.1664 15.3962C11.3129 15.5427 11.5116 15.625 11.7188 15.625H17.9688C18.176 15.625 18.3747 15.5427 18.5212 15.3962C18.6677 15.2497 18.75 15.051 18.75 14.8438V13.2812C18.75 13.074 18.6677 12.8753 18.5212 12.7288C18.3747 12.5823 18.176 12.5 17.9688 12.5ZM24.2188 0H11.7188C11.5116 0 11.3129 0.08231 11.1664 0.228823C11.0198 0.375336 10.9375 0.57405 10.9375 0.78125V2.34375C10.9375 2.55095 11.0198 2.74966 11.1664 2.89618C11.3129 3.04269 11.5116 3.125 11.7188 3.125H24.2188C24.426 3.125 24.6247 3.04269 24.7712 2.89618C24.9177 2.74966 25 2.55095 25 2.34375V0.78125C25 0.57405 24.9177 0.375336 24.7712 0.228823C24.6247 0.08231 24.426 0 24.2188 0V0Z" fill="white"/>
</svg>
