<?xml version="1.0" encoding="UTF-8"?>
<svg id="Layer_2" data-name="Layer 2" xmlns="http://www.w3.org/2000/svg" viewBox="0 0 251 179">
  <defs>
    <style>
      .cls-1 {
        fill: #fff;
      }

      .cls-2 {
        fill: #231f20;
      }
    </style>
  </defs>
  <g id="Layer_1-2" data-name="Layer 1">
    <rect class="cls-2" width="251" height="179" rx="10.59" ry="10.59"/>
    <g id="Layer_2-2" data-name="Layer 2-2">
      <g id="Layer_1-2" data-name="Layer 1-2">
        <path class="cls-1" d="M112.73,150.12c-.88-.84-2.19-1.25-3.94-1.25h-8.06v15.69h4.87v-5.82h2.65c1.96,0,3.41-.45,4.36-1.34s1.43-2.13,1.43-3.71-.44-2.73-1.31-3.56h0Zm-3.98,4.93c-.38,.32-1.03,.49-1.97,.49h-1.18v-3.5h1.38c.91,0,1.53,.17,1.85,.51s.49,.76,.49,1.25-.19,.93-.57,1.25Z"/>
        <path class="cls-1" d="M128.33,154.59c0-1.5-.24-2.71-.74-3.65-.49-.93-1.21-1.65-2.15-2.14-.94-.49-2.22-.74-3.85-.74-2,0-3.58,.55-4.71,1.65-1.14,1.1-1.7,2.53-1.7,4.31,0,1.25,.28,2.34,.85,3.25,.57,.93,1.28,1.6,2.14,2.02s2.04,.63,3.55,.63c1.74,0,3.06-.25,3.99-.75,.93-.49,1.72-1.31,2.38-2.46l-4.29-.4c-.27,.34-.53,.58-.76,.71-.38,.21-.8,.32-1.22,.32-.67,0-1.23-.24-1.65-.74-.3-.34-.49-.86-.57-1.56h8.73s0-.47,0-.47Zm-8.72-1.59c.07-.67,.24-1.18,.5-1.53,.41-.55,.97-.83,1.66-.83,.6,0,1.08,.18,1.45,.54,.37,.37,.59,.97,.68,1.81h-4.29Z"/>
        <path class="cls-1" d="M142.94,154.59c0-1.5-.24-2.71-.74-3.65-.49-.93-1.21-1.65-2.15-2.14-.94-.49-2.22-.74-3.85-.74-2,0-3.58,.55-4.71,1.65-1.14,1.1-1.7,2.53-1.7,4.31,0,1.25,.28,2.34,.85,3.25,.57,.93,1.28,1.6,2.14,2.02,.86,.42,2.04,.63,3.55,.63,1.74,0,3.07-.25,3.99-.75,.93-.49,1.72-1.31,2.38-2.46l-4.29-.4c-.27,.34-.53,.58-.76,.71-.38,.21-.79,.32-1.22,.32-.68,0-1.23-.24-1.65-.74-.3-.34-.49-.86-.57-1.56h8.73s0-.47,0-.47Zm-8.72-1.59c.07-.67,.24-1.18,.5-1.53,.41-.55,.97-.83,1.66-.83,.6,0,1.08,.18,1.45,.54,.37,.37,.59,.97,.68,1.81h-4.29Z"/>
        <rect class="cls-1" x="145.09" y="144" width="4.37" height="15.69"/>
      </g>
    </g>
  </g>
</svg>