<?xml version="1.0" encoding="UTF-8"?>
<svg id="Layer_2" data-name="Layer 2" xmlns="http://www.w3.org/2000/svg" viewBox="0 0 230 196">
  <defs>
    <style>
      .cls-1 {
        fill: #009444;
      }

      .cls-2 {
        fill: #d1d3d4;
      }

      .cls-3 {
        fill: #754c29;
        stroke: #231f20;
        stroke-miterlimit: 10;
      }
    </style>
  </defs>
  <g id="Layer_1-2" data-name="Layer 1">
    <path class="cls-3" d="M63.37,.5h103.26c34.7,0,62.87,28.17,62.87,62.87H.5C.5,28.67,28.67,.5,63.37,.5Z"/>
    <path class="cls-3" d="M.5,63.5H229.5v71.66c0,33.3-27.04,60.34-60.34,60.34H60.84C27.54,195.5,.5,168.46,.5,135.16V63.5H.5Z"/>
    <circle class="cls-1" cx="115.5" cy="97.5" r="3.5"/>
    <path class="cls-2" d="M121.7,146.87c-1.08-1.03-2.7-1.54-4.86-1.54h-9.93v19.33h6v-7.17h3.27c2.41,0,4.2-.55,5.37-1.65s1.76-2.62,1.76-4.57-.54-3.36-1.62-4.39h.01Zm-4.9,6.08c-.47,.4-1.27,.6-2.43,.6h-1.46v-4.31h1.7c1.12,0,1.88,.21,2.28,.63s.61,.94,.61,1.54-.23,1.14-.7,1.54Z"/>
  </g>
</svg>