<?xml version="1.0" encoding="UTF-8"?>
<svg id="Layer_2" data-name="Layer 2" xmlns="http://www.w3.org/2000/svg" viewBox="0 0 519 724">
  <defs>
    <style>
      .cls-1 {
        fill: #fff;
      }

      .cls-2 {
        fill: #231f20;
      }

      .cls-3 {
        fill: #754c29;
      }
    </style>
  </defs>
  <g id="Layer_1-2" data-name="Layer 1">
    <g>
      <rect class="cls-3" x=".5" y=".5" width="518" height="723" rx="43.73" ry="43.73"/>
      <path class="cls-3" d="M474.77,724H44.23c-24.39,0-44.23-19.84-44.23-44.23V44.23C0,19.84,19.84,0,44.23,0H474.77c24.39,0,44.23,19.84,44.23,44.23V679.77c0,24.39-19.84,44.23-44.23,44.23ZM44.23,1C20.39,1,1,20.39,1,44.23V679.77c0,23.84,19.39,43.23,43.23,43.23H474.77c23.84,0,43.23-19.39,43.23-43.23V44.23c0-23.84-19.39-43.23-43.23-43.23H44.23Z"/>
    </g>
    <g>
      <circle class="cls-1" cx="43.5" cy="42.5" r="17"/>
      <path class="cls-2" d="M43.5,60c-9.65,0-17.5-7.85-17.5-17.5s7.85-17.5,17.5-17.5,17.5,7.85,17.5,17.5-7.85,17.5-17.5,17.5Zm0-34c-9.1,0-16.5,7.4-16.5,16.5s7.4,16.5,16.5,16.5,16.5-7.4,16.5-16.5-7.4-16.5-16.5-16.5Z"/>
    </g>
    <g id="Layer_2-2" data-name="Layer 2-2">
      <g id="Layer_1-2" data-name="Layer 1-2">
        <path class="cls-1" d="M244.1,663.23c-1.08-1.03-2.7-1.54-4.86-1.54h-9.93v19.33h6v-7.17h3.27c2.41,0,4.2-.55,5.37-1.65s1.76-2.62,1.76-4.57-.54-3.36-1.62-4.39h.01Zm-4.9,6.08c-.47,.4-1.27,.6-2.43,.6h-1.46v-4.31h1.7c1.12,0,1.88,.21,2.28,.63s.61,.94,.61,1.54-.23,1.14-.7,1.54Z"/>
        <path class="cls-1" d="M263.32,668.74c0-1.85-.3-3.34-.91-4.5-.61-1.15-1.49-2.03-2.65-2.64-1.16-.61-2.74-.91-4.75-.91-2.47,0-4.41,.68-5.81,2.03-1.4,1.35-2.1,3.12-2.1,5.31,0,1.54,.35,2.88,1.05,4.01,.7,1.14,1.58,1.97,2.64,2.49s2.52,.78,4.38,.78c2.14,0,3.77-.31,4.92-.92,1.14-.61,2.12-1.62,2.93-3.03l-5.29-.49c-.33,.42-.65,.72-.94,.88-.47,.26-.98,.4-1.5,.4-.83,0-1.51-.3-2.03-.91-.37-.42-.6-1.06-.7-1.92h10.76s0-.58,0-.58Zm-10.74-1.96c.09-.83,.29-1.46,.62-1.88,.51-.68,1.19-1.02,2.04-1.02,.74,0,1.33,.22,1.79,.67,.45,.45,.73,1.19,.84,2.23h-5.29Z"/>
        <path class="cls-1" d="M281.33,668.74c0-1.85-.3-3.34-.91-4.5-.61-1.15-1.49-2.03-2.65-2.64-1.16-.61-2.74-.91-4.75-.91-2.47,0-4.41,.68-5.81,2.03-1.4,1.35-2.1,3.12-2.1,5.31,0,1.54,.35,2.88,1.05,4.01,.7,1.14,1.58,1.97,2.64,2.49,1.06,.52,2.52,.78,4.38,.78,2.14,0,3.78-.31,4.92-.92,1.14-.61,2.12-1.62,2.93-3.03l-5.29-.49c-.33,.42-.65,.72-.94,.88-.47,.26-.97,.4-1.5,.4-.84,0-1.51-.3-2.03-.91-.37-.42-.6-1.06-.7-1.92h10.76s0-.58,0-.58Zm-10.74-1.96c.09-.83,.29-1.46,.62-1.88,.51-.68,1.19-1.02,2.04-1.02,.74,0,1.33,.22,1.79,.67,.45,.45,.73,1.19,.84,2.23h-5.29Z"/>
        <rect class="cls-1" x="283.98" y="655.69" width="5.38" height="19.33"/>
      </g>
    </g>
  </g>
</svg>