<svg width="37" height="29" viewBox="0 0 37 29" fill="none" xmlns="http://www.w3.org/2000/svg">
<path d="M19.4122 12.1308C19.4122 13.2442 18.7377 13.885 17.5493 13.885H15.9884V10.3766H17.5557C18.7377 10.3766 19.4122 11.0109 19.4122 12.1308ZM22.4634 16.183C22.4634 16.7203 22.9259 17.0699 23.6517 17.0699C24.5767 17.0699 25.2705 16.4808 25.2705 15.6522V15.1538L23.7609 15.2509C22.9066 15.3092 22.4634 15.6263 22.4634 16.183ZM37 3.10714V25.8929C37 27.6083 35.6189 29 33.9167 29H3.08333C1.38108 29 0 27.6083 0 25.8929V3.10714C0 1.39174 1.38108 0 3.08333 0H33.9167C35.6189 0 37 1.39174 37 3.10714ZM8.20938 10.7585C8.74896 10.8038 9.28854 10.4866 9.62899 10.0853C9.96302 9.67098 10.1814 9.11429 10.1236 8.55112C9.64826 8.57054 9.05729 8.8683 8.71684 9.28259C8.40851 9.63862 8.14514 10.2147 8.20938 10.7585ZM12.1021 15.581C12.0892 15.5681 10.8431 15.0891 10.8302 13.6391C10.8174 12.4286 11.813 11.846 11.858 11.8136C11.2927 10.9721 10.4191 10.8815 10.1172 10.8621C9.33351 10.8167 8.66545 11.3087 8.29288 11.3087C7.91389 11.3087 7.34861 10.8815 6.73194 10.8944C5.92899 10.9074 5.17743 11.367 4.77274 12.0984C3.93125 13.5614 4.55434 15.7234 5.37014 16.9145C5.7684 17.5036 6.25017 18.1509 6.87969 18.125C7.47708 18.0991 7.71476 17.7366 8.4342 17.7366C9.16007 17.7366 9.36563 18.125 9.99514 18.1185C10.6503 18.1056 11.055 17.5295 11.4597 16.9404C11.903 16.2672 12.0892 15.6199 12.1021 15.581ZM20.7997 12.1243C20.7997 10.4025 19.6113 9.22433 17.9155 9.22433H14.6266V18.0538H15.9884V15.0373H17.8705C19.592 15.0373 20.7997 13.8462 20.7997 12.1243ZM26.5809 13.6585C26.5809 12.3833 25.566 11.5612 24.0115 11.5612C22.5661 11.5612 21.4998 12.3962 21.4613 13.5355H22.6882C22.791 12.9917 23.292 12.6357 23.9729 12.6357C24.808 12.6357 25.2705 13.0241 25.2705 13.7491V14.2346L23.5747 14.3382C21.9944 14.4353 21.1401 15.0891 21.1401 16.2219C21.1401 17.3676 22.0201 18.125 23.2856 18.125C24.1399 18.125 24.93 17.6913 25.2898 16.9987H25.3155V18.0603H26.5745V13.6585H26.5809ZM33.1458 11.6453H31.7648L30.1653 16.8627H30.1396L28.5401 11.6453H27.1076L29.4137 18.0732L29.2917 18.4616C29.0861 19.1219 28.7457 19.3808 28.1418 19.3808C28.0326 19.3808 27.8271 19.3679 27.7436 19.3614V20.423C27.8207 20.4489 28.1611 20.4554 28.2639 20.4554C29.5936 20.4554 30.2167 19.944 30.7627 18.3969L33.1458 11.6453Z" fill="white"/>
</svg>
